<?xml version="1.0" encoding="utf-8"?>
<!-- Generator: Adobe Illustrator 24.1.1, SVG Export Plug-In . SVG Version: 6.00 Build 0)  -->
<svg version="1.1" id="Layer_1" xmlns="http://www.w3.org/2000/svg" xmlns:xlink="http://www.w3.org/1999/xlink" x="0px" y="0px"
	 viewBox="0 0 512 512" style="enable-background:new 0 0 512 512;" xml:space="preserve">
<style type="text/css">
	.st0{fill:#333333;}
</style>
<g id="XMLID_1_">
	<path id="XMLID_5_" class="st0" d="M512,284v-58.4L441,202l-16.6-40.2l32.3-67.1l-41-41l-66.3,33.1l-40.2-16.6L284,0h-58.4
		l-22.9,71l-41,16.6L94.7,55.2l-41,41l33.1,66.3l-16.6,40.2L0,228v58.4L71,310l16.6,40.2l-32.3,67.1l41,41l66.3-33.1l40.2,16.6
		L228,512h58.4l22.9-71l41-16.6l67.1,32.3l41-41l-33.9-66.3l17.4-40.2L512,284L512,284z M255.6,366.1
		c-60.7,0-109.7-48.9-109.7-109.7s48.9-110.4,109.7-110.4s109.7,48.9,109.7,109.7S316.4,366.1,255.6,366.1z"/>
</g>
</svg>
